<?xml version="1.0" standalone="no"?>
<!DOCTYPE svg PUBLIC "-//W3C//DTD SVG 20010904//EN"
 "http://www.w3.org/TR/2001/REC-SVG-20010904/DTD/svg10.dtd">
<svg version="1.0" xmlns="http://www.w3.org/2000/svg"
 width="663.000000pt" height="439.000000pt" viewBox="0 0 663.000000 439.000000"
 preserveAspectRatio="xMidYMid meet">

<g transform="translate(0.000000,439.000000) scale(0.100000,-0.100000)"
fill="#000000" stroke="none">
<path d="M1415 2295 c-5 -2 -23 -6 -39 -10 -21 -4 -26 -9 -17 -14 10 -6 9 -10
-3 -14 -9 -4 -16 -16 -16 -27 0 -11 -4 -20 -10 -20 -5 0 -10 18 -10 40 0 38
-12 52 -25 30 -3 -5 -1 -10 5 -10 6 0 8 -4 5 -10 -3 -5 -17 -10 -30 -10 -14 0
-32 -11 -44 -27 -24 -30 -38 -26 -21 6 10 20 8 21 -27 21 -26 0 -45 -8 -65
-27 -26 -25 -27 -28 -12 -44 15 -17 15 -19 -10 -30 -14 -7 -28 -20 -32 -31 -3
-10 -10 -16 -15 -13 -5 4 -9 -1 -9 -9 0 -20 9 -20 34 -1 26 20 36 19 36 -2 1
-17 1 -17 11 0 12 21 49 23 49 2 0 -9 9 -34 20 -55 17 -33 26 -40 50 -40 37 0
38 12 4 35 -38 25 -22 29 24 6 29 -15 41 -28 45 -51 8 -36 32 -40 41 -5 4 15
14 25 25 25 20 0 43 -42 35 -64 -3 -8 0 -17 7 -22 8 -4 10 -3 5 5 -5 7 4 27
19 47 23 30 25 39 16 64 -9 27 -8 30 10 30 10 0 19 -7 19 -16 0 -26 17 -7 24
27 5 27 8 30 21 19 13 -11 15 -8 15 19 0 21 -5 31 -15 31 -21 0 -19 17 4 30
36 19 52 13 45 -17 l-7 -28 22 20 c13 11 43 27 69 35 25 8 47 20 49 27 5 15
-80 34 -181 40 -66 5 -79 9 -83 24 -5 18 -15 22 -38 14z m-257 -122 c-6 -7
-15 -13 -20 -13 -6 0 -5 7 2 15 9 11 9 15 1 15 -7 0 -9 4 -6 10 4 6 11 5 20
-3 9 -8 10 -16 3 -24z"/>
<path d="M1990 2008 c0 -134 5 -249 11 -271 15 -56 65 -77 189 -77 122 0 165
12 190 53 18 29 20 52 20 280 l0 247 -65 0 -65 0 0 -220 0 -220 -75 0 -75 0 0
220 0 220 -65 0 -65 0 0 -232z"/>
<path d="M2690 2175 l0 -65 70 0 70 0 0 -225 0 -225 65 0 65 0 0 225 0 225 70
0 70 0 0 65 0 65 -205 0 -205 0 0 -65z"/>
<path d="M3220 1950 l0 -290 65 0 65 0 0 81 0 80 41 -3 42 -3 29 -77 30 -78
69 0 c38 0 69 1 69 3 0 1 -15 38 -33 82 l-34 79 34 32 33 31 0 131 c0 140 -6
168 -41 201 -21 20 -34 21 -196 21 l-173 0 0 -290z m278 101 c6 -97 2 -101
-78 -101 l-70 0 0 80 0 81 73 -3 72 -3 3 -54z"/>
<path d="M3875 2228 c-8 -26 -155 -557 -155 -562 0 -3 29 -6 64 -6 l64 0 11
45 11 45 74 0 73 0 13 -45 13 -45 64 0 c57 0 64 2 59 18 -3 9 -37 132 -76 272
-39 140 -73 263 -76 273 -4 14 -17 17 -70 17 -43 0 -66 -4 -69 -12z m99 -322
c6 -24 4 -26 -30 -26 -40 0 -39 -6 -12 95 l10 40 13 -42 c7 -23 15 -53 19 -67z"/>
<path d="M4190 2233 c-1 -4 34 -135 77 -291 l78 -283 64 3 64 3 78 280 c44
154 79 283 79 288 0 4 -28 7 -62 7 l-63 0 -45 -165 c-24 -91 -47 -165 -50
-165 -3 0 -26 73 -51 163 l-46 162 -61 3 c-34 2 -62 -1 -62 -5z"/>
<path d="M4760 1950 l0 -290 180 0 180 0 0 70 0 70 -115 0 -115 0 0 45 0 45
85 0 85 0 0 65 0 65 -85 0 -85 0 0 45 0 45 115 0 115 0 0 65 0 65 -180 0 -180
0 0 -290z"/>
<path d="M5250 1950 l0 -290 170 0 170 0 0 70 0 70 -105 0 -105 0 0 220 0 220
-65 0 -65 0 0 -290z"/>
<path d="M608 2189 c-3 -17 -3 -42 0 -55 4 -22 6 -23 32 -9 15 8 30 21 34 30
4 11 15 15 33 13 22 -2 37 -18 73 -78 31 -51 57 -81 80 -92 19 -10 36 -16 38
-14 8 9 -19 46 -33 46 -8 0 -15 7 -15 16 0 13 7 15 35 11 34 -6 35 -5 35 29 0
20 5 34 13 34 17 0 57 45 57 64 0 10 -9 16 -24 16 -14 0 -28 5 -31 10 -4 6
-70 10 -164 10 l-159 0 -4 -31z"/>
<path d="M1042 2178 c-19 -19 -14 -25 17 -25 26 0 28 2 18 19 -14 21 -19 22
-35 6z"/>
<path d="M1031 2015 c-29 -52 -51 -64 -51 -29 0 9 -10 14 -29 14 -28 0 -30 -4
-42 -55 -11 -52 -11 -57 9 -78 20 -21 22 -35 23 -133 l0 -109 20 54 c10 30 25
61 33 70 8 9 18 28 21 44 4 15 16 32 26 38 11 6 19 20 19 36 0 39 11 21 46
-70 17 -45 37 -83 45 -85 19 -4 59 87 59 134 0 23 11 57 25 83 31 53 31 59 1
54 -20 -4 -29 3 -51 41 -27 45 -49 58 -58 34 -4 -10 -6 -10 -6 0 -1 6 -14 12
-30 12 -25 0 -34 -8 -60 -55z"/>
<path d="M1440 1930 c0 -5 5 -10 10 -10 6 0 10 5 10 10 0 6 -4 10 -10 10 -5 0
-10 -4 -10 -10z"/>
<path d="M1500 1936 c0 -11 33 -36 47 -36 14 0 14 3 -2 20 -16 18 -45 28 -45
16z"/>
<path d="M1442 1849 c-28 -20 -41 -37 -38 -46 3 -8 6 -24 6 -35 0 -18 4 -20
32 -14 24 5 37 1 54 -15 30 -28 51 -19 60 27 8 45 -6 89 -29 88 -9 -1 -15 3
-14 9 4 23 -30 16 -71 -14z"/>
<path d="M1230 1805 c0 -25 5 -45 10 -45 6 0 10 20 10 45 0 25 -4 45 -10 45
-5 0 -10 -20 -10 -45z"/>
</g>
</svg>
